<?xml version="1.0"?>
<svg xmlns="http://www.w3.org/2000/svg" xmlns:xlink="http://www.w3.org/1999/xlink" xmlns:svgjs="http://svgjs.com/svgjs" version="1.1" width="512" height="512" x="0" y="0" viewBox="0 0 512 512" style="enable-background:new 0 0 512 512" xml:space="preserve" class=""><g><g xmlns="http://www.w3.org/2000/svg"><path d="m502 344.373h-16.546v-98.026c0-3.88-2.211-7.245-5.442-8.903l-56.178-82.771c-1.861-2.742-4.96-4.384-8.274-4.384h-14.737v-65.988c0-5.522-4.478-10-10-10h-262.205c-4.433 0-8.337 2.918-9.591 7.17l-25.788 87.401h-83.239c-5.523 0-10 4.478-10 10v221.741c0 5.522 4.477 10 10 10h56.273c7.413 15.978 23.606 27.086 42.345 27.086s34.932-11.108 42.345-27.086h58.615c7.413 15.978 23.606 27.086 42.344 27.086s34.932-11.108 42.345-27.086h91.526c7.413 15.978 23.606 27.086 42.345 27.086s34.932-11.108 42.345-27.086h31.517c5.522 0 10-4.478 10-10v-46.24c0-5.522-4.478-10-10-10zm-101.177 0v-88.026h64.631v88.026zm-19.334 46.24h-82.917c-.087-9.744-3.175-18.785-8.383-26.24h99.682c-5.207 7.455-8.295 16.496-8.382 26.24zm28.773-220.324 44.834 66.058h-54.272v-66.058zm-274.168-75.988h244.729v250.072h-318.513zm69.179 296.312h-50.005c-.087-9.744-3.175-18.785-8.383-26.24h66.771c-5.208 7.455-8.296 16.496-8.383 26.24zm-117.935-201.741-45.881 155.501h-21.457v-155.501zm-67.338 175.501h50.351c-5.208 7.455-8.296 16.496-8.383 26.24h-41.968zm88.618 53.326c-14.696 0-26.652-11.961-26.652-26.663s11.956-26.663 26.652-26.663 26.652 11.961 26.652 26.663-11.956 26.663-26.652 26.663zm143.304 0c-14.696 0-26.652-11.961-26.652-26.663s11.956-26.663 26.652-26.663c14.697 0 26.653 11.961 26.653 26.663s-11.956 26.663-26.653 26.663zm176.217 0c-14.696 0-26.652-11.961-26.652-26.663s11.956-26.663 26.652-26.663 26.652 11.961 26.652 26.663-11.956 26.663-26.652 26.663zm63.861-27.086h-17.212c-.087-9.744-3.175-18.785-8.383-26.24h25.595z" fill="#000000" data-original="#000000" style="" class=""/><path d="m190.453 270.309h20.163c.159 2.326 1.127 4.606 2.905 6.384 1.953 1.952 4.512 2.929 7.071 2.929s5.119-.977 7.071-2.929l9.313-9.313c3.905-3.905 3.905-10.237 0-14.143l-9.313-9.313c-3.905-3.904-10.237-3.904-14.143 0-1.777 1.778-2.745 4.058-2.905 6.384h-20.163c-1.221 0-1.867-.702-2.194-1.291-.328-.589-.582-1.509.063-2.545l8.06-12.957c2.917-4.69 1.48-10.856-3.209-13.773-4.688-2.915-10.855-1.479-13.773 3.209l-8.06 12.957c-4.315 6.937-4.531 15.683-.563 22.823s11.508 11.578 19.677 11.578z" fill="#000000" data-original="#000000" style="" class=""/><path d="m271.276 225.585c-1.463 5.326 1.669 10.829 6.994 12.291.887.244 1.777.36 2.654.36 1.717 0 3.379-.446 4.839-1.255l5.849 9.491c.645 1.036.39 1.956.063 2.545s-.974 1.291-2.194 1.291h-24.005c-5.522 0-10 4.478-10 10s4.478 10 10 10h24.005c8.169 0 15.709-4.437 19.677-11.577 3.968-7.142 3.753-15.887-.54-22.787l-5.503-8.93c1.71-1.284 3.023-3.124 3.633-5.344 1.463-5.326-1.669-10.829-6.994-12.291l-12.699-3.487c-5.328-1.467-10.829 1.669-12.291 6.994z" fill="#000000" data-original="#000000" style="" class=""/><path d="m197.626 199.469c1.074 4.617 5.186 7.736 9.731 7.736.75 0 1.513-.085 2.275-.262l12.827-2.984c5.379-1.252 8.725-6.627 7.474-12.006-.582-2.502-2.057-4.563-4.008-5.927l11.911-19.153c.609-.979 1.495-1.185 2.131-1.185.636.001 1.522.206 2.079 1.1l14.887 24.47c2.87 4.718 9.021 6.218 13.74 3.346 4.719-2.87 6.217-9.022 3.346-13.74l-14.938-24.555c-4.137-6.649-11.282-10.619-19.113-10.62-7.831 0-14.977 3.971-19.114 10.621l-11.918 19.164c-2.03-1.039-4.424-1.394-6.819-.838-5.379 1.252-8.725 6.627-7.474 12.006z" fill="#000000" data-original="#000000" style="" class=""/></g></g></svg>
