<?xml version="1.0" encoding="utf-8"?>
<!-- Generator: Adobe Illustrator 24.0.1, SVG Export Plug-In . SVG Version: 6.00 Build 0)  -->
<svg version="1.1" baseProfile="basic" id="Layer_1"
	 xmlns="http://www.w3.org/2000/svg" xmlns:xlink="http://www.w3.org/1999/xlink" x="0px" y="0px" viewBox="0 0 792 612"
	 xml:space="preserve">
<style type="text/css">
	.st0{fill:url(#SVGID_1_);}
	.st1{fill:#FFFFFF;}
	.st2{fill-rule:evenodd;clip-rule:evenodd;fill:#69A82F;}
	.st3{fill:url(#SVGID_2_);}
	.st4{fill:url(#SVGID_3_);}
	.st5{fill:url(#SVGID_4_);}
	.st6{fill:url(#SVGID_5_);}
	.st7{fill:url(#SVGID_6_);}
	.st8{fill:url(#SVGID_7_);}
	.st9{fill:url(#SVGID_8_);}
	.st10{fill:url(#SVGID_9_);}
	.st11{fill:url(#SVGID_10_);}
	.st12{fill:url(#SVGID_11_);}
	.st13{fill:url(#SVGID_12_);}
	.st14{fill:url(#SVGID_13_);}
	.st15{fill:url(#SVGID_14_);}
	.st16{fill:url(#SVGID_15_);}
	.st17{fill:url(#SVGID_16_);}
	.st18{fill:none;}
	.st19{fill:#575756;}
</style>
<g>
	<g>
		<g>
			
				<radialGradient id="SVGID_1_" cx="526.3463" cy="255.9965" r="81.3951" gradientTransform="matrix(1 1.200000e-03 -1.200000e-03 1 -37.7086 8.1036)" gradientUnits="userSpaceOnUse">
				<stop  offset="0" style="stop-color:#00A9E5"/>
				<stop  offset="0.1158" style="stop-color:#00A4E0"/>
				<stop  offset="0.2888" style="stop-color:#0096D3"/>
				<stop  offset="0.4976" style="stop-color:#007FBE"/>
				<stop  offset="0.7335" style="stop-color:#0061A1"/>
				<stop  offset="0.9693" style="stop-color:#004082"/>
			</radialGradient>
			<path class="st0" d="M569.72,264.83c-0.06,44.95-36.54,81.35-81.49,81.3c-44.96-0.06-81.35-36.55-81.3-81.5
				c0.05-44.96,36.54-81.35,81.49-81.3C533.38,183.38,569.78,219.86,569.72,264.83z"/>
			<g>
				<path class="st1" d="M498.94,195.53c-0.45,0.95-0.6,2.09-1.7,2.64c-0.84-0.41-1.55,0.05-2.14-0.85l1.8-2.63L498.94,195.53z"/>
				<g>
					<path class="st1" d="M524.49,191.73c3.39,1.34,6.58,3.04,9.71,4.79l0,0.24c-1.6-0.2-3.04-2.59-4.53-1.2
						c-0.55,1.25,0.74,1.85,1.39,2.5c0.75,0.29,1.79,0.35,2.19,1.09c-1.79,0.09-3.53-3.15-5.03-0.61c0.1,2.5,2.93,3.65,4.77,4.44
						c1.54-0.25,1.6,1.9,2.39,2.84c-0.35,0.84,0.54,1.25,0.59,1.94c-0.45,0.7-0.01,2.39-1.44,1.64c-2.09-0.64-2.04-3.99-4.68-3.59
						c-0.65,0-1.74-0.24-1.99-1.06c0.15-0.73,1.84-0.4,1.4-1.68c-1.04-3.24-4.93-0.46-5.83-3.35c-0.64-1.25-1.09-2.89-2.64-3.48
						c-0.54,0.04-0.99-0.21-1.53-0.11c-0.8,0.65-0.51,1.54-0.36,2.39c-0.54-0.1-0.99-0.35-1.58-0.24c-0.45,0.6-0.75,1.39-0.46,2.13
						c-1.39,0-2.09-1.2-3.14-1.79c1.05,0,2.75,0.71,3.24-0.95c0.15-1.44-1.49-1.59-2.39-2.14c-1.35,0.26-3.68,0.7-4.78-0.95v-0.25
						c2.25-0.15,3.88,1.55,5.97,0.36c0.44-0.36,0.94-0.55,0.95-1.2c0-0.89-1-1.33-1.64-1.65c-0.95-0.59-2.09,0.05-2.99-0.15v-0.26
						c0.85-0.24,2.19,0.16,2.39-1.04c0.3-1.34-1.29-1.7-1.93-2.55c-2.15-1.35-3,2.55-4.79,0.99c-0.35-0.15-0.9,0.3-1.04,0.71
						l0.09,1.19c-1.48-0.31-2.69-1.15-3.67-2.3c-1.65,0.24-3.14-0.75-4.68-1.06c-0.95,0.24-1.4,1.65-2.64,0.94
						c-0.94-0.95-2.09-1.54-3.34-1.79c-0.74,0.19-1.44,1.2-2.23,0.49c0.44-0.39,0.89-0.95,0.69-1.69c-4.28-1.3-9.81-1.36-13.84-0.26
						c-2.69,0.6-6.57-0.06-7.68,2.88c0.81,1.3,1.9,0,2.89,0.61c1.25,0.89,2.89-0.15,4.18,0.7c0.96-0.24,2.19-0.5,3.09-0.24
						c0.84,0.85,2.29,2.19,2.14,3.6c-1.05,0.13-2.03-1.36-2.99-0.12c-0.15,0.36-0.44,0.66-0.34,1.1c1.38,2.59,3.88,1.69,6.22,1.54
						c1.09,0.4-0.25,1.55,0.94,2.06c1.69,0.64,2.2-2.1,3.58-0.25c0.35,0.8,0.85,1.35,1.3,2.05c0.54,0.74,0.45,1.94,0.99,2.84
						c1.14,2,1.44,4.29,2.98,6.13c-0.3,0.45-1.2,0.65-1.69,0.2c-0.8-0.65-1.6-0.65-2.64-0.45c-2.93,0.84-3.98-3.6-6.82-3
						c0.25-0.54,0.99-1.19,0.4-1.78c-0.79-0.49-1.74-0.95-2.54-1.1c-1.44-0.8-2.64-2.69-4.53-2.15c-1.14,0.4-2.3,1.7-2.89,2.75
						c-0.94,0.24-1.4-0.8-2.14-1.21c0.7-1.99,1.01-4.23,2.04-5.97c0.41-0.89-0.63-1.1-1.08-1.45c-1.54-0.3-2.69,1.29-3.69,2.38
						c-0.35,1.2,1.19,2.39-0.35,3.39c-0.76,1.14-0.65,3.13-0.16,4.38c-0.75,0.69-2.19,0.65-3.08,1c-1.3-0.86,0.64-1.8-0.35-2.8
						c0.7,0.11,1.45,0.5,1.89-0.34c0.55-0.75,0-1.66,0-2.49c-0.74-1.05-1.99-1.05-2.99-0.5c-1.7,1.14-2.69,3.18-5.03,2.88
						c-1.69,0.79-2.69,2.54-4.53,2.98c-0.21,0.84-1.1,1.59-0.61,2.63c1.1,1.1,2.49-0.4,3.14,1.55c0.79,0.6,1.94,0.76,2.83,0.85
						c-0.2,1.6-1.39,3.64,0.25,4.79c0.99,0,2.28,0,3.23-0.5c2.2-1.14-0.15-2.49,0.61-4.08c0.45,0.84,1.09,1.49,1.89,1.94
						c0.69,0.1,1.68-0.05,2.04-0.85c0.86-2.09-2.78-2.79-1.09-4.52c0.45,0.74,0.59,2,1.69,2.05c1.89-0.4,0.1-3.99,2.49-2.79
						c1.89-0.65,3.49,1.1,5.03,1.7c1.34,0.3,2.78,0.96,4.19,0.35c0.2,0.1,0.1,0.36,0.14,0.5c-0.85,0.44-2.38-0.55-2.54,1.04
						c0.15,2.25,3.43,1,3.49,3.24c-0.6,0.75-1.2,0.61-1.95,0.6c-1.94,0.15-3.64-0.91-5.38-0.11c-0.3-1.24,2.24-1.04,1.35-2.64
						c-0.65-1.1-1.69-1.5-2.75-1.79c-1.03-0.5-2.24,0.69-2.63,1.69c0.19,1.19-1.55,1.25-1.46,2.39c-0.69,0.75-2.19,1.63-1.3,2.83
						c0.8,0.75,1.94,0.2,2.84,0c0.2-0.15,0.6-0.74,0.95-0.34c0.69,0.45,0.64,1.34,0.59,1.89c0,0.99-1.04,0.39-1.39,0.49
						c-0.74-0.35-1.19-1.49-2.04-1.45c-0.65-0.35-1.45,0.5-2.14,0.74c-0.7,1.85-1.9,3.64-1.35,5.82c0.74,1.15,2.14,1.81,3.33,1.55
						c1.05,0.25,1.75-0.94,2.64-0.19c0.79,1.24,1.99-0.55,2.54,1.05c0,0.78-0.15,1.69,0.6,2.14c1.75-0.8,1.79,2.78,3.58,0.84
						c0.36-0.44,0.65-0.95,0.7-1.54c0.05-1.25-1.14-1.69-1.54-2.64c0.69-0.75,1.89-1.53,1.45-2.84c-0.69-1.2-2.74-0.7-2.64-2.19
						c1.35-1.29-1.84-3.3,1.05-3.43c1.2,0.4,2.34,1.59,3.58,0.95c0.55,0.05,1.2,1.4,2.04,0.85c0.96-0.6,0.6-1.94,1.55-2.29
						c0.9,0.7,1.44,2.59,2.89,1.69c1.24,3.24,5.03,0.6,7.27,1.9c1.14,0.9,1.59,2.7,2.99,3.14c1.29,0.16,2.88-1.44,4.07,0
						c-1.29,1.34-2.83,1.49-4.68,1.88c-0.8-0.65-0.35-1.64-1.3-2.39c-3.33-0.36-6.17,2.89-7.77,5.72c-0.19,0.75-0.55,1.44-0.6,2.29
						c0.34,0.55,1,0.75,1.55,0.45c1.89-0.75,2.09-4.04,4.33-3.09c1.09,0.35,1.44,3.74,3.08,1.8c0.45-0.4,0.05-1.39,0.86-1.44
						c0.34,0.74,0.34,1.93-0.01,2.64l-1.7,1.78c-0.35-0.79-0.39-2.04-1.44-2.29c-1.2,0.34-1.79,1.78-1.89,2.99
						c-1.6,0.09-1.9,1.64-3.24,2.39c-0.1,1.24,2.18,1.59,1.44,2.63c-1,0.75-2.64,0.16-3.09,1.8c0.15,1.64,0.8,3.19-0.16,4.68
						c0.89,1.3,0.35,2.95,0.49,4.44c-0.66,1.64-2.54,2.44-2.99,4.18c-0.5-0.05-0.6,0.55-0.84,0.79c0.39,2.79,3.32,4.48,3.82,7.18
						c-0.34,0.39-0.55,0.05-0.95,0.15c-0.39-2.15-3.39-1.34-3.23-3.74c-0.99-0.5-1.79-1.84-3.13-1.19
						c-1.09,0.54-2.09,0.44-3.19,0.99c-0.85,0.04-1.89-0.35-2.3,0.79l0.25,1.45c-1.79-0.4-3.73-0.3-5.52,0.34
						c-1.2,1.48-2.39,3.08-2.15,5.02c0.5,0.65,1.1,1.09,0.84,1.94c-1.09,0.65-1,2.01-0.94,2.99c1.29,2.45,3.17,5.59,6.06,6.43
						c1.69,0.16,3.53,0.46,4.43-1.18c0.71-1.85-0.23-4.73,2.51-5.23c0.95-0.54,1.59,0.36,1.8,1.05c-0.21,2.39-3.25,5.14-0.62,7.17
						c0.84,0.35,1.74-0.04,2.39-0.44c0.4-0.7,0.84-1.45,1.69-1.44c0.95-0.06,1.44,0.85,2.29,1.04c0.44,1.36-0.91,2.1-0.25,3.4
						c1.8,1.1,2.69,4.23,5.22,3.78l2.79-3.07c1.4,0.65,2.73,1.64,4.54,1.09c1.98-1.89,1.14-5.62,4.43-6.36l0.44-1.9
						c1,0.55,0,2.18,1.19,2.64c0.9,0.25,1.79-0.4,1.95-1.2v-2.04c0.89-0.04,1.04,1.4,1.98,1.46c2.4,0.64,4.44-1.35,5.89-3.14
						c1.24,0.55,2.79,2.18,4.28,0.85c1.45,0.7,2.99,1.1,4.32,1.95c3,1.35,3.76-4.07,6.43-1.59c1.44,0.16,2.99-0.4,4.08,0.85
						c0.34,0.51,0.79,0.89,0.6,1.55c-0.44,0.68-1.54,0.99-1.29,2.03c0.64,1.64,2.38,0.45,3.58,0.61c1.85-0.85,4.09-1.25,5.49-2.73
						c2.24-1.69,5.18,1.4,7.27-0.94c1.15,0.1,2.95,0.09,2.79,1.65c-0.54,2.77-1.55,5.37-1.01,8.16c0.54,4.92-3.2,8.56-3.6,13.14
						c-0.5,1.54-1.94,2.84-2.74,4.17c-1.69,3.25-5.34,5.74-5.14,9.76c-1.94,1.95-2.79,5.03-5.63,5.52c-1.79,0.9-0.21,3.39-2.39,3.95
						c-2.44,0.2-3,3.32-4.89,4.43c-4.1,2.98-3.05,8.3-7.34,11.33c-0.25,0.57-1.14,0.86-1.64,0.36l-1.09-1.8
						c0.56-3.24-0.14-6.43,1.45-9.22c-0.34-1.69-1.03-3.53,0.61-4.88c0.55-1.4,0.4-2.59,0.7-4.08c0.1-0.89-0.5-1.53-0.95-2.24
						c-0.14-1.35,1.06-2.79-0.23-3.83c-2.39-2.01-6.33-2.45-9.31-2.67c-1-1.79-3.2-0.79-3.93-2.99c-0.54-0.75-1.35-0.1-2.04-0.1
						c-1.64-0.76-1-3.55-3.34-3.15c-0.35-0.3-0.35-0.99,0-1.29c0.45-0.35,0.71-1.09,0.25-1.54c-0.54-0.85-1.84-0.7-1.69-1.94
						c2.15-2.29-2.79-5.09,0.95-6.43c1.2-1.34,0.34-2.89,0.25-4.44c-0.85-1.09-2.14-2.54-3.68-2.14c-1.79,0.11-3.35,1.19-4.69,2.13
						c-1.74-0.44-3.18-2.03-5.13-2.29c-2.19-0.25-0.93-2.74-2.63-3.34l-1.44,0.24c-0.4-1.1-1.59-0.6-2.49-0.75
						c-1.29,0.55-2.59,2.09-4.08,0.99c-1.04-0.74-0.19-2.49-1.79-2.78c-1.84-0.06-4.03,0.54-5.83,1.33
						c-0.59-1.69-2.29-0.89-3.24-1.19c-0.55-1.1-1.79-1.54-2.89-1.36c-0.6,0.71-1.8,0.71-2.49,0.5c-1.05-0.51-0.5-1.54-0.5-2.38
						c0.74-0.7,0.4-1.65,0-2.4c-2.64-4.39-6.72-6.93-9.75-11.02c-0.44-0.3-1.05-0.95-1.59-0.35c-0.8,2.18,1.29,4.13,2.18,6.08
						c1,1.73,2.88,3.44,4.03,5.18c-0.4,0.51-0.75-0.39-1.19-0.39c-2.49-1.55-2.49-5.99-6.22-5.59c-0.15-0.69,0.6-0.09,0.75-0.6
						c-0.85-2.29-2.74-4.13-2.53-6.82c-0.4-0.94-1.39-1.5-2.24-1.94c-1.09-2.7-3.73-4.69-3.73-7.88c0.7-1.74,0.11-4.27,1.79-5.71
						c0.56-1.3-1.04-2.45,0.16-3.59c-0.3-1.4-0.19-3.05-1.34-3.94c1.7,0.01,1.06-1.99,1.2-3.13c-0.64-1.69-0.94-3.55-2.48-4.88
						c0.1-0.6,1-0.65,1.29-1.1c0.85-0.55,1.2-1.49,0.85-2.39c-1.5-0.84-1.14-2.93-2.99-3.23c-2.54-1.65-3.88,1.63-5.62,2.52
						c-2.05,0.35-3.44,2.64-5.74,2.13c2.04-0.53,4.09-1.43,5.53-3.22c1.15-1.24,1.65-3.19,1.9-5.02c1.1-1.5,4.64-1.44,3.1-4.03
						v-0.35c1.04-0.3,1.74,1.04,2.88,0.2c1.29-0.65-0.19-2.29,1.7-2.49c0.35-1.29,1.7-1.1,2.84-1.44c2.24,1.1,2.68,5.18,5.97,3.93
						c0.75-0.44,1.45-0.14,2.14-0.19c0.65,0.79,1.3,1.9,2.29,2.4c1.65,0.1,3.24,0.2,3.94-1.6c0.3-0.64-0.25-1.44-0.95-1.64l-1.9-0.5
						c-0.05-0.69,0.16-1.65-0.74-1.9c-0.65-0.34-1.2,0.24-1.9,0.25c0.3-1.04,1-1.89,0.7-3.13c-0.94-0.8-1.78,0.09-2.48,0.74
						c-0.01-0.2-0.21-0.4-0.36-0.4c-1.09,0.05-1.79,0.95-2.99,0.6c-0.69-0.85-3.23-1.09-2.04-2.59c1.04-0.99,1.7-2.49,1.45-3.98
						c2.3-0.75,4.08-2.13,6.09-3.68c3.23-2.08,7.27-3.17,9.82-6.31c0.25-0.6,0.09-1.44-0.6-1.7c-2.3,0.15-3.74,2.64-5.98,2.39
						c-1.19,0.65-2.44,1.13-3.59,1.93c-1.29,1.15-3.79,0.89-3.83,3.18c-1.05,0.95-2.4,1.15-3.59,1.69c-2.39,1.1-4.19,3.64-5.98,5.38
						c-0.55,0.79,1.09,1.69,0,2.14c-0.3,0.2-1.3,0.45-1.45,1.2c-0.3,0.74,0.64,1.14,0.15,1.79c-0.6,0.44-0.75,1.2-1.59,1.09
						c-0.61-0.45-0.2-1.25-0.79-1.7c-1.55-0.35-1.56,1.49-2.79,1.78c0.1-0.25,0-1.04-0.61-1.19c-0.79,0.59-1.59,1.24-2.48,1.69
						c5.82-6.47,13.15-13.53,20.82-17.32c8.44-5.11,18.2-7.54,27.86-9.42c2.09,0.51,4.43-0.34,6.43-0.34
						C499.1,182.19,512.35,185.04,524.49,191.73z"/>
					<path class="st1" d="M538.23,201.8c-0.15,0.45,0.4,0.61,0.6,0.95c0.6,0.11,1.3-0.1,1.34-0.68v-0.51
						c11.89,11.32,21,24.43,26.35,38.79v0.2l-1.19-2.6c-1-0.75-0.85-2.14-2.14-2.54c-2.29,1.54,0.05,4.53-1.55,6.57l-0.49,0
						c-1.34-1.78-3.34-4.14-5.82-4.3c-1.94-1.39-1.49-4.47-3.13-6.32c-0.9-1.29-2.65-1.4-2.99-3.14c-3.43-0.3-2.43-4.68-5.02-6.34
						c-1.35-0.74-0.41-2.54-0.35-3.68c0.1-3.23-3.78-2.65-4.18-5.53c0.15-1.89-1.23-3.74-0.43-5.73c-0.15-2.29-2.14-3.79-2.18-6.07
						C537.59,200.91,538.18,201.26,538.23,201.8z"/>
				</g>
				<path class="st1" d="M468.55,205.16c-0.1,0.7-0.35,1.2-0.61,1.79c-0.29-0.43-0.24-1.19-0.94-1.38
					C467.5,205.7,468,205.15,468.55,205.16z"/>
				<path class="st1" d="M494.67,264.6l0.84,0.16c-1.04,0.55-2.24,0.74-3.14,1.62c-1.64,0.11-1.88-2.98-3.83-1.79
					c-1.74-0.1-2.94,1.59-4.63,1.33c0.3-0.63,1.1-1.59,1.89-1.78c2.34-1.05,4.78-0.8,6.82,0.7
					C493.33,265.09,494.08,264.9,494.67,264.6z"/>
				<path class="st1" d="M503.49,264.86c-0.45,1.6-2.54,1.25-3.69,2.14h-2.04c0.8-0.54,0.45-1.79,1.2-2.24
					C500.4,265.32,502.14,264.12,503.49,264.86z"/>
			</g>
		</g>
		<path class="st2" d="M448.52,182.47c51.13-29.34,116.31-12.13,145.54,38.45c27.96,48.34,12.96,109.66-33.11,140.59
			c2.38-1.13,4.71-2.37,7.03-3.69c54.05-31,72.85-99.51,41.93-152.99c-30.89-53.45-99.81-71.65-153.85-40.64
			c-28.1,16.1-46.66,42.35-53.68,71.35C410.98,213.94,426.71,194.98,448.52,182.47z"/>
		<path class="st2" d="M552.73,202.47c34.01,31.63,36.14,86.06,4.75,121.53c-30.01,33.9-79.8,38.21-113.82,10.88
			c1.41,1.49,2.89,2.98,4.43,4.42c35.96,33.46,92.03,30.2,125.19-7.3c33.19-37.5,30.95-95.05-5.03-128.51
			c-18.69-17.36-42.79-24.84-66.31-22.76C520.24,181.78,538.22,188.98,552.73,202.47z"/>
	</g>
	<g>
		
			<linearGradient id="SVGID_2_" gradientUnits="userSpaceOnUse" x1="297.4568" y1="349.7702" x2="297.4568" y2="233.1138" gradientTransform="matrix(1 1.200000e-03 -1.200000e-03 1 -37.7086 8.1036)">
			<stop  offset="0" style="stop-color:#D3ECFA"/>
			<stop  offset="1" style="stop-color:#9ED0EB"/>
		</linearGradient>
		<path class="st3" d="M278.24,220.79l-0.13,115.18c0,0,8.33,30.66-38.1,24.56l0-1.86l0.14-115.17
			C240.13,243.51,245.27,222.61,278.24,220.79z"/>
		
			<linearGradient id="SVGID_3_" gradientUnits="userSpaceOnUse" x1="234.0681" y1="349.7685" x2="234.0681" y2="233.1156" gradientTransform="matrix(1 1.200000e-03 -1.200000e-03 1 -37.7086 8.1036)">
			<stop  offset="0" style="stop-color:#D3ECFA"/>
			<stop  offset="1" style="stop-color:#9ED0EB"/>
		</linearGradient>
		<path class="st4" d="M214.85,220.72l-0.14,115.18c0,0,8.33,30.65-38.11,24.55l0-1.86l0.14-115.17
			C176.75,243.43,181.88,222.54,214.85,220.72z"/>
		
			<linearGradient id="SVGID_4_" gradientUnits="userSpaceOnUse" x1="268.5498" y1="340.4801" x2="268.5498" y2="215.7661" gradientTransform="matrix(1 1.200000e-03 -1.200000e-03 1 -37.7086 8.1036)">
			<stop  offset="0" style="stop-color:#00A0DE"/>
			<stop  offset="0.1107" style="stop-color:#009BD8"/>
			<stop  offset="0.2758" style="stop-color:#008CC7"/>
			<stop  offset="0.4748" style="stop-color:#0075AC"/>
			<stop  offset="0.6983" style="stop-color:#00578B"/>
			<stop  offset="0.8957" style="stop-color:#083C6F"/>
		</linearGradient>
		<path class="st5" d="M280.89,335.97l0.14-115.17c-32.97,1.82-38.11,22.71-38.11,22.71l-0.04,35.52L217.56,279l0.07-58.28
			c-32.98,1.82-38.11,22.71-38.11,22.71L179.4,358.6l0,1.85c39.93,4.22,38.11-24.55,38.11-24.55l0.04-30.89l25.31,0.03l-0.07,53.64
			l0,1.86C289.21,366.63,280.89,335.97,280.89,335.97z"/>
		
			<linearGradient id="SVGID_5_" gradientUnits="userSpaceOnUse" x1="461.8487" y1="349.7759" x2="461.8487" y2="233.1209" gradientTransform="matrix(1 1.200000e-03 -1.200000e-03 1 -37.7086 8.1036)">
			<stop  offset="0" style="stop-color:#D3ECFA"/>
			<stop  offset="1" style="stop-color:#9ED0EB"/>
		</linearGradient>
		<path class="st6" d="M442.63,221l-0.14,115.17c0,0,8.33,30.66-38.11,24.57v-1.86l0.14-115.18
			C404.52,243.7,409.66,222.81,442.63,221z"/>
		
			<linearGradient id="SVGID_6_" gradientUnits="userSpaceOnUse" x1="464.3978" y1="349.8494" x2="464.3978" y2="233.1292" gradientTransform="matrix(1 1.200000e-03 -1.200000e-03 1 -37.7086 8.1036)">
			<stop  offset="0" style="stop-color:#00A0DE"/>
			<stop  offset="0.1107" style="stop-color:#009BD8"/>
			<stop  offset="0.2758" style="stop-color:#008CC7"/>
			<stop  offset="0.4748" style="stop-color:#0075AC"/>
			<stop  offset="0.6983" style="stop-color:#00578B"/>
			<stop  offset="0.8957" style="stop-color:#083C6F"/>
		</linearGradient>
		<path class="st7" d="M445.42,221l-0.13,115.17c0,0,4.03,31-38.11,24.57v-1.86l0.14-115.17C407.32,243.71,412.45,222.82,445.42,221
			z"/>
		
			<linearGradient id="SVGID_7_" gradientUnits="userSpaceOnUse" x1="378.433" y1="343.308" x2="469.5588" y2="213.9095" gradientTransform="matrix(1 1.200000e-03 -1.200000e-03 1 -37.7086 8.1036)">
			<stop  offset="0" style="stop-color:#D3ECFA"/>
			<stop  offset="1" style="stop-color:#9AD3EB"/>
		</linearGradient>
		<path class="st8" d="M324.64,354.59c0,0,63.41-101.8,70.72-114.62c7.29-12.74,26.5-19.47,49.25-18.97
			c0,0-65.14,108.12-69.79,116.02C370.15,344.9,351.1,362.06,324.64,354.59z"/>
		
			<linearGradient id="SVGID_8_" gradientUnits="userSpaceOnUse" x1="378.505" y1="347.2867" x2="471.3826" y2="215.4006" gradientTransform="matrix(1 1.200000e-03 -1.200000e-03 1 -37.7086 8.1036)">
			<stop  offset="0" style="stop-color:#008FD1"/>
			<stop  offset="1" style="stop-color:#0063A1"/>
		</linearGradient>
		<path class="st9" d="M324.63,358.78c0,0,63.74-101.63,70.73-114.63c7.18-13.35,26.5-23.65,49.25-23.15
			c0,0-65.14,112.3-69.8,120.19C370.15,349.08,351.09,366.23,324.63,358.78z"/>
		
			<linearGradient id="SVGID_9_" gradientUnits="userSpaceOnUse" x1="379.3066" y1="349.7698" x2="379.3066" y2="233.117" gradientTransform="matrix(1 1.200000e-03 -1.200000e-03 1 -37.7086 8.1036)">
			<stop  offset="0" style="stop-color:#D3ECFA"/>
			<stop  offset="1" style="stop-color:#9ED0EB"/>
		</linearGradient>
		<path class="st10" d="M360.09,220.89l-0.13,115.17c0,0,8.32,30.66-38.11,24.56l0-1.86l0.14-115.17
			C321.98,243.6,327.12,222.72,360.09,220.89z"/>
		
			<linearGradient id="SVGID_10_" gradientUnits="userSpaceOnUse" x1="382.0907" y1="349.7665" x2="382.0907" y2="233.1174" gradientTransform="matrix(1 1.200000e-03 -1.200000e-03 1 -37.7086 8.1036)">
			<stop  offset="0" style="stop-color:#00A0DE"/>
			<stop  offset="0.1107" style="stop-color:#009BD8"/>
			<stop  offset="0.2758" style="stop-color:#008CC7"/>
			<stop  offset="0.4748" style="stop-color:#0075AC"/>
			<stop  offset="0.6983" style="stop-color:#00578B"/>
			<stop  offset="0.8957" style="stop-color:#083C6F"/>
		</linearGradient>
		<path class="st11" d="M362.87,220.9l-0.14,115.17c0,0,8.33,30.66-38.11,24.56l0-1.85l0.14-115.17
			C324.77,243.61,329.9,222.72,362.87,220.9z"/>
		
			<linearGradient id="SVGID_11_" gradientUnits="userSpaceOnUse" x1="375.2457" y1="348.5417" x2="469.8544" y2="214.1974" gradientTransform="matrix(1 1.200000e-03 -1.200000e-03 1 -37.7086 8.1036)">
			<stop  offset="0" style="stop-color:#D3ECFA"/>
			<stop  offset="1" style="stop-color:#9ED0EB"/>
		</linearGradient>
		<path class="st12" d="M321.84,360.63c0,0,66.29-108.07,73.98-120.66c7.97-13.03,26.5-19.47,49.25-18.97
			c0,0-65.14,108.13-69.8,116.02C370.63,344.9,348.3,368.09,321.84,360.63z"/>
		
			<linearGradient id="SVGID_12_" gradientUnits="userSpaceOnUse" x1="377.6417" y1="349.1769" x2="471.7812" y2="215.4989" gradientTransform="matrix(1 1.200000e-03 -1.200000e-03 1 -37.7086 8.1036)">
			<stop  offset="0" style="stop-color:#00A7E3"/>
			<stop  offset="1" style="stop-color:#0063A1"/>
		</linearGradient>
		<path class="st13" d="M323.93,360.98c0,0,64.91-103.83,71.89-116.83c7.17-13.35,26.5-23.65,49.25-23.15
			c0,0-65.15,112.3-69.8,120.19C370.62,349.07,350.39,368.43,323.93,360.98z"/>
		
			<linearGradient id="SVGID_13_" gradientUnits="userSpaceOnUse" x1="296.5905" y1="343.3146" x2="387.7199" y2="213.911" gradientTransform="matrix(1 1.200000e-03 -1.200000e-03 1 -37.7086 8.1036)">
			<stop  offset="0" style="stop-color:#D3ECFA"/>
			<stop  offset="1" style="stop-color:#9AD3EB"/>
		</linearGradient>
		<path class="st14" d="M242.79,354.49c0,0,63.25-101.9,70.73-114.62c7.83-13.32,26.5-19.47,49.24-18.97
			c0,0-65.14,108.14-69.79,116.02C288.31,344.81,269.25,361.96,242.79,354.49z"/>
		
			<linearGradient id="SVGID_14_" gradientUnits="userSpaceOnUse" x1="296.6629" y1="347.2836" x2="389.5396" y2="215.3987" gradientTransform="matrix(1 1.200000e-03 -1.200000e-03 1 -37.7086 8.1036)">
			<stop  offset="0" style="stop-color:#008FD1"/>
			<stop  offset="1" style="stop-color:#0063A1"/>
		</linearGradient>
		<path class="st15" d="M242.78,358.67c0,0,63.74-101.62,70.73-114.62c7.17-13.35,26.5-23.65,49.25-23.16
			c0,0-65.15,112.31-69.8,120.2C288.3,348.98,269.24,366.14,242.78,358.67z"/>
		
			<linearGradient id="SVGID_15_" gradientUnits="userSpaceOnUse" x1="293.3907" y1="348.5341" x2="387.9977" y2="214.1922" gradientTransform="matrix(1 1.200000e-03 -1.200000e-03 1 -37.7086 8.1036)">
			<stop  offset="0" style="stop-color:#D3ECFA"/>
			<stop  offset="1" style="stop-color:#9ED0EB"/>
		</linearGradient>
		<path class="st16" d="M240,360.53c0,0,66.31-108.05,73.98-120.66c8.81-14.47,26.5-19.47,49.25-18.97c0,0-65.14,108.12-69.8,116.02
			C288.77,344.8,266.46,367.99,240,360.53z"/>
		
			<linearGradient id="SVGID_16_" gradientUnits="userSpaceOnUse" x1="295.8" y1="349.1719" x2="389.9348" y2="215.5007" gradientTransform="matrix(1 1.200000e-03 -1.200000e-03 1 -37.7086 8.1036)">
			<stop  offset="0" style="stop-color:#00A6E3"/>
			<stop  offset="1" style="stop-color:#0063A1"/>
		</linearGradient>
		<path class="st17" d="M242.09,360.87c0,0,64.91-103.82,71.89-116.82c7.17-13.35,26.5-23.65,49.25-23.15
			c0,0-65.15,112.3-69.8,120.2C288.77,348.98,268.55,368.33,242.09,360.87z"/>
	</g>
	<g>
		<path d="M177.91,426.03h6.72c4.31,0,6.97,3.2,6.97,7.86c0,3.63-1.62,8.31-7.06,8.31h-6.62V426.03z M180.15,440.33h4.34
			c2.91,0,4.8-2.23,4.8-6.3c0-4.08-1.91-6.13-4.96-6.13h-4.18V440.33z"/>
		<path d="M204.43,438.51c-0.07,0.57-0.62,2.23-2.15,3.22c-0.55,0.36-1.34,0.81-3.28,0.81c-3.39,0-5.4-2.5-5.4-5.9
			c0-3.65,1.8-6.56,5.79-6.56c3.48,0,5.19,2.71,5.19,6.87h-8.81c0,2.46,1.18,3.88,3.51,3.88c1.92,0,3.05-1.45,3.12-2.33H204.43z
			 M202.49,435.38c-0.12-1.83-0.9-3.51-3.37-3.51c-1.87,0-3.34,1.69-3.34,3.51H202.49z"/>
		<path d="M213.85,433.78c-0.02-0.74-0.3-1.98-2.86-1.98c-0.62,0-2.4,0.2-2.4,1.67c0,0.97,0.62,1.19,2.19,1.57l2.03,0.5
			c2.52,0.61,3.39,1.51,3.39,3.11c0,2.43-2.06,3.9-4.78,3.9c-4.78,0-5.12-2.71-5.19-4.12h1.96c0.07,0.92,0.35,2.41,3.21,2.41
			c1.46,0,2.77-0.57,2.77-1.87c0-0.95-0.67-1.27-2.4-1.69l-2.35-0.56c-1.69-0.41-2.79-1.24-2.79-2.86c0-2.59,2.19-3.76,4.57-3.76
			c4.32,0,4.62,3.11,4.62,3.69H213.85z"/>
		<path d="M228.53,442.2h-1.92v-1.62h-0.05c-0.88,1.6-2.26,1.97-3.44,1.97c-4.11,0-5.31-3.76-5.31-6.58c0-3.31,1.82-5.88,5.03-5.88
			c2.19,0,3.12,1.33,3.6,2.01h0.05v-6.06h2.03V442.2z M223.18,440.83c1.29,0,3.3-0.83,3.3-3.97c0-1.92-0.32-5-3.25-5
			c-3.14,0-3.3,2.91-3.3,4.41C219.93,438.87,220.97,440.83,223.18,440.83z"/>
		<path d="M241.58,438.51c-0.07,0.57-0.62,2.23-2.15,3.22c-0.55,0.36-1.34,0.81-3.28,0.81c-3.39,0-5.4-2.5-5.4-5.9
			c0-3.65,1.8-6.56,5.79-6.56c3.48,0,5.19,2.71,5.19,6.87h-8.81c0,2.46,1.18,3.88,3.51,3.88c1.92,0,3.05-1.45,3.11-2.33H241.58z
			 M239.64,435.38c-0.12-1.83-0.9-3.51-3.37-3.51c-1.87,0-3.34,1.69-3.34,3.51H239.64z"/>
		<path d="M261.79,426.03h2.17v16.17h-2.52l-8.42-13.06h-0.04v13.06h-2.17v-16.17h2.66l8.28,13.06h0.04V426.03z"/>
		<path d="M267.24,428.29v-2.25h2.03v2.25H267.24z M269.27,442.2h-2.03v-11.78h2.03V442.2z"/>
		<path d="M279.85,434.39c-0.25-1.58-1.15-2.52-2.86-2.52c-2.51,0-3.32,2.34-3.32,4.44c0,2.03,0.51,4.53,3.3,4.53
			c1.36,0,2.54-1,2.88-2.79h1.96c-0.21,1.87-1.39,4.51-4.92,4.51c-3.39,0-5.4-2.5-5.4-5.9c0-3.65,1.8-6.56,5.79-6.56
			c3.16,0,4.36,2.26,4.52,4.3H279.85z"/>
		<path d="M283.76,434c0.09-2.82,2.01-3.92,4.99-3.92c0.97,0,4.48,0.27,4.48,3.29v6.78c0,0.49,0.25,0.7,0.67,0.7
			c0.18,0,0.44-0.05,0.67-0.09v1.44c-0.35,0.09-0.65,0.22-1.11,0.22c-1.8,0-2.08-0.9-2.15-1.8c-0.78,0.83-2.01,1.92-4.36,1.92
			c-2.22,0-3.79-1.38-3.79-3.4c0-0.99,0.3-3.29,3.67-3.69l3.35-0.41c0.48-0.04,1.06-0.22,1.06-1.39c0-1.24-0.93-1.92-2.84-1.92
			c-2.31,0-2.63,1.37-2.77,2.27H283.76z M291.19,436.19c-0.32,0.24-0.83,0.43-3.35,0.74c-0.99,0.14-2.58,0.43-2.58,1.92
			c0,1.28,0.67,2.05,2.19,2.05c1.89,0,3.74-1.19,3.74-2.77V436.19z"/>
		<path d="M298.95,442.2h-2.03v-11.78h1.91v1.96h0.05c0.81-1.37,1.87-2.3,3.39-2.3c0.25,0,0.37,0.03,0.53,0.07v2.05h-0.76
			c-1.89,0-3.09,1.44-3.09,3.15V442.2z"/>
		<path d="M304.02,434c0.09-2.82,2.01-3.92,4.99-3.92c0.97,0,4.48,0.27,4.48,3.29v6.78c0,0.49,0.25,0.7,0.67,0.7
			c0.18,0,0.44-0.05,0.67-0.09v1.44c-0.35,0.09-0.65,0.22-1.11,0.22c-1.8,0-2.08-0.9-2.15-1.8c-0.78,0.83-2.01,1.92-4.36,1.92
			c-2.22,0-3.78-1.38-3.78-3.4c0-0.99,0.3-3.29,3.67-3.69l3.35-0.41c0.48-0.04,1.06-0.22,1.06-1.39c0-1.24-0.93-1.92-2.84-1.92
			c-2.31,0-2.63,1.37-2.77,2.27H304.02z M311.46,436.19c-0.32,0.24-0.83,0.43-3.35,0.74c-0.99,0.14-2.58,0.43-2.58,1.92
			c0,1.28,0.67,2.05,2.19,2.05c1.89,0,3.74-1.19,3.74-2.77V436.19z"/>
		<path d="M326.92,441.23c0,1.69-0.02,5.92-5.61,5.92c-1.43,0-4.22-0.38-4.62-3.51h2.03c0.37,1.87,2.24,1.87,2.72,1.87
			c3.51,0,3.44-2.75,3.44-4.14v-0.5c-0.58,0.95-1.64,1.67-3.26,1.67c-4.11,0-5.31-3.76-5.31-6.58c0-3.31,1.82-5.88,5.03-5.88
			c2.19,0,3.14,1.35,3.64,2.07v-1.73h1.92V441.23z M321.69,440.83c1.29,0,3.3-0.83,3.3-3.97c0-1.92-0.32-5-3.25-5
			c-3.14,0-3.3,2.91-3.3,4.41C318.43,438.87,319.47,440.83,321.69,440.83z"/>
		<path d="M337.59,442.2v-1.71l-0.04-0.04c-0.86,1.37-1.89,2.1-3.83,2.1c-1.78,0-3.92-0.84-3.92-3.65v-8.47h2.03v7.81
			c0,1.94,1.02,2.59,2.33,2.59c2.56,0,3.32-2.21,3.32-3.92v-6.49h2.03v11.78H337.59z"/>
		<path d="M342.46,434c0.09-2.82,2.01-3.92,4.99-3.92c0.97,0,4.48,0.27,4.48,3.29v6.78c0,0.49,0.25,0.7,0.67,0.7
			c0.18,0,0.44-0.05,0.67-0.09v1.44c-0.35,0.09-0.65,0.22-1.11,0.22c-1.8,0-2.08-0.9-2.15-1.8c-0.78,0.83-2.01,1.92-4.36,1.92
			c-2.22,0-3.79-1.38-3.79-3.4c0-0.99,0.3-3.29,3.67-3.69l3.35-0.41c0.48-0.04,1.06-0.22,1.06-1.39c0-1.24-0.93-1.92-2.84-1.92
			c-2.31,0-2.63,1.37-2.77,2.27H342.46z M349.9,436.19c-0.32,0.24-0.83,0.43-3.35,0.74c-0.99,0.14-2.58,0.43-2.58,1.92
			c0,1.28,0.67,2.05,2.19,2.05c1.89,0,3.74-1.19,3.74-2.77V436.19z"/>
		<path d="M355.85,439.82h2.4v2.21c0,3.06-1.94,3.42-2.4,3.49v-1.04c0.97-0.09,1.22-1.22,1.22-2.28h-1.22V439.82z"/>
		<path d="M368,430.42h1.92v1.67h0.04c0.49-0.68,1.41-2.01,3.6-2.01c3.21,0,5.03,2.57,5.03,5.88c0,2.81-1.2,6.58-5.31,6.58
			c-1.62,0-2.68-0.74-3.21-1.58h-0.05v5.9H368V430.42z M373.24,440.83c2.22,0,3.25-1.96,3.25-4.55c0-1.51-0.16-4.41-3.3-4.41
			c-2.93,0-3.26,3.08-3.26,5C369.94,440,371.94,440.83,373.24,440.83z"/>
		<path d="M380.9,434c0.1-2.82,2.01-3.92,4.99-3.92c0.97,0,4.48,0.27,4.48,3.29v6.78c0,0.49,0.25,0.7,0.67,0.7
			c0.18,0,0.44-0.05,0.67-0.09v1.44c-0.34,0.09-0.65,0.22-1.11,0.22c-1.8,0-2.08-0.9-2.15-1.8c-0.78,0.83-2.01,1.92-4.36,1.92
			c-2.21,0-3.78-1.38-3.78-3.4c0-0.99,0.3-3.29,3.67-3.69l3.35-0.41c0.48-0.04,1.06-0.22,1.06-1.39c0-1.24-0.92-1.92-2.84-1.92
			c-2.31,0-2.63,1.37-2.77,2.27H380.9z M388.34,436.19c-0.32,0.24-0.83,0.43-3.35,0.74c-0.99,0.14-2.58,0.43-2.58,1.92
			c0,1.28,0.67,2.05,2.19,2.05c1.89,0,3.74-1.19,3.74-2.77V436.19z"/>
		<path d="M396.1,442.2h-2.03v-11.78h1.92v1.96h0.05c0.81-1.37,1.87-2.3,3.39-2.3c0.25,0,0.37,0.03,0.53,0.07v2.05h-0.76
			c-1.89,0-3.09,1.44-3.09,3.15V442.2z"/>
		<path d="M401.17,434c0.09-2.82,2.01-3.92,4.99-3.92c0.97,0,4.48,0.27,4.48,3.29v6.78c0,0.49,0.25,0.7,0.67,0.7
			c0.18,0,0.44-0.05,0.67-0.09v1.44c-0.35,0.09-0.65,0.22-1.11,0.22c-1.8,0-2.08-0.9-2.15-1.8c-0.78,0.83-2.01,1.92-4.36,1.92
			c-2.21,0-3.79-1.38-3.79-3.4c0-0.99,0.3-3.29,3.67-3.69l3.35-0.41c0.49-0.04,1.06-0.22,1.06-1.39c0-1.24-0.93-1.92-2.84-1.92
			c-2.31,0-2.63,1.37-2.77,2.27H401.17z M408.6,436.19c-0.32,0.24-0.83,0.43-3.35,0.74c-0.99,0.14-2.58,0.43-2.58,1.92
			c0,1.28,0.67,2.05,2.19,2.05c1.89,0,3.74-1.19,3.74-2.77V436.19z"/>
		<path d="M430.71,438.51c-0.07,0.57-0.63,2.23-2.15,3.22c-0.56,0.36-1.34,0.81-3.28,0.81c-3.39,0-5.4-2.5-5.4-5.9
			c0-3.65,1.8-6.56,5.79-6.56c3.48,0,5.19,2.71,5.19,6.87h-8.81c0,2.46,1.17,3.88,3.5,3.88c1.92,0,3.05-1.45,3.12-2.33H430.71z
			 M428.77,435.38c-0.12-1.83-0.9-3.51-3.37-3.51c-1.87,0-3.34,1.69-3.34,3.51H428.77z"/>
		<path d="M435.35,442.2h-2.03v-16.17h2.03V442.2z"/>
		<path d="M447.1,442.2h-2.03v-11.78h1.92v1.96h0.04c0.81-1.37,1.86-2.3,3.39-2.3c0.25,0,0.37,0.03,0.53,0.07v2.05h-0.77
			c-1.89,0-3.09,1.44-3.09,3.15V442.2z"/>
		<path d="M462.72,438.51c-0.07,0.57-0.62,2.23-2.15,3.22c-0.55,0.36-1.33,0.81-3.27,0.81c-3.39,0-5.4-2.5-5.4-5.9
			c0-3.65,1.8-6.56,5.79-6.56c3.49,0,5.19,2.71,5.19,6.87h-8.81c0,2.46,1.17,3.88,3.51,3.88c1.92,0,3.05-1.45,3.12-2.33H462.72z
			 M460.78,435.38c-0.11-1.83-0.9-3.51-3.37-3.51c-1.87,0-3.34,1.69-3.34,3.51H460.78z"/>
		<path d="M472.13,433.78c-0.02-0.74-0.3-1.98-2.86-1.98c-0.62,0-2.4,0.2-2.4,1.67c0,0.97,0.63,1.19,2.19,1.57l2.03,0.5
			c2.52,0.61,3.39,1.51,3.39,3.11c0,2.43-2.06,3.9-4.78,3.9c-4.78,0-5.12-2.71-5.19-4.12h1.96c0.07,0.92,0.34,2.41,3.2,2.41
			c1.46,0,2.77-0.57,2.77-1.87c0-0.95-0.67-1.27-2.4-1.69l-2.35-0.56c-1.69-0.41-2.79-1.24-2.79-2.86c0-2.59,2.19-3.76,4.57-3.76
			c4.32,0,4.62,3.11,4.62,3.69H472.13z"/>
		<path d="M479.29,432.07v7.66c0,0.92,0.81,0.92,1.22,0.92h0.72v1.55c-0.74,0.07-1.31,0.16-1.52,0.16c-2.01,0-2.45-1.11-2.45-2.53
			v-7.77h-1.64v-1.64h1.64v-3.29h2.03v3.29h1.94v1.64H479.29z"/>
		<path d="M488.13,430.08c3.85,0,5.61,3.18,5.61,6.22c0,3.04-1.76,6.21-5.61,6.21c-3.86,0-5.61-3.18-5.61-6.21
			C482.52,433.26,484.27,430.08,488.13,430.08z M488.13,440.8c2.91,0,3.51-2.92,3.51-4.5c0-1.58-0.6-4.5-3.51-4.5
			c-2.91,0-3.51,2.93-3.51,4.5C484.62,437.88,485.22,440.8,488.13,440.8z"/>
		<path d="M512.45,442.2h-1.91v-1.62h-0.05c-0.88,1.6-2.26,1.97-3.44,1.97c-4.11,0-5.31-3.76-5.31-6.58c0-3.31,1.82-5.88,5.03-5.88
			c2.19,0,3.12,1.33,3.6,2.01h0.04v-6.06h2.03V442.2z M507.1,440.83c1.29,0,3.3-0.83,3.3-3.97c0-1.92-0.33-5-3.25-5
			c-3.14,0-3.3,2.91-3.3,4.41C503.84,438.87,504.88,440.83,507.1,440.83z"/>
		<path d="M525.5,438.51c-0.07,0.57-0.63,2.23-2.15,3.22c-0.56,0.36-1.34,0.81-3.28,0.81c-3.39,0-5.4-2.5-5.4-5.9
			c0-3.65,1.8-6.56,5.79-6.56c3.48,0,5.19,2.71,5.19,6.87h-8.81c0,2.46,1.17,3.88,3.5,3.88c1.92,0,3.05-1.45,3.12-2.33H525.5z
			 M523.56,435.38c-0.12-1.83-0.9-3.51-3.37-3.51c-1.87,0-3.34,1.69-3.34,3.51H523.56z"/>
		<path d="M530.14,442.2h-2.04v-16.17h2.04V442.2z"/>
		<path d="M553.48,442.2v-9.55c0-0.47,0.05-2.52,0.05-4.03h-0.05l-4.66,13.58h-2.21l-4.66-13.55h-0.05c0,1.49,0.05,3.54,0.05,4.01
			v9.55h-2.17v-16.17h3.21l4.73,13.67h0.05l4.7-13.67h3.18v16.17H553.48z"/>
		<path d="M566.65,442.2v-1.71l-0.04-0.04c-0.86,1.37-1.89,2.1-3.83,2.1c-1.78,0-3.93-0.84-3.93-3.65v-8.47h2.03v7.81
			c0,1.94,1.01,2.59,2.33,2.59c2.56,0,3.32-2.21,3.32-3.92v-6.49h2.03v11.78H566.65z"/>
		<path d="M581.42,442.2h-2.03v-7.25c0-2.05-0.6-3.08-2.59-3.08c-1.15,0-3.18,0.72-3.18,3.92v6.41h-2.04v-11.78h1.91v1.67h0.05
			c0.44-0.63,1.57-2.01,3.65-2.01c1.86,0,4.22,0.75,4.22,4.1V442.2z"/>
		<path d="M594.43,442.2h-1.92v-1.62h-0.04c-0.88,1.6-2.26,1.97-3.44,1.97c-4.11,0-5.31-3.76-5.31-6.58c0-3.31,1.82-5.88,5.03-5.88
			c2.19,0,3.11,1.33,3.6,2.01h0.05v-6.06h2.03V442.2z M589.07,440.83c1.29,0,3.3-0.83,3.3-3.97c0-1.92-0.32-5-3.25-5
			c-3.14,0-3.3,2.91-3.3,4.41C585.81,438.87,586.86,440.83,589.07,440.83z"/>
		<path d="M602.14,430.08c3.85,0,5.61,3.18,5.61,6.22c0,3.04-1.76,6.21-5.61,6.21c-3.85,0-5.6-3.18-5.6-6.21
			C596.53,433.26,598.28,430.08,602.14,430.08z M602.14,440.8c2.91,0,3.51-2.92,3.51-4.5c0-1.58-0.6-4.5-3.51-4.5
			c-2.91,0-3.51,2.93-3.51,4.5C598.63,437.88,599.23,440.8,602.14,440.8z"/>
		<path d="M611.16,438.35l-0.55-6.98v-5.34h2.24v5.34l-0.56,6.98H611.16z M612.85,442.2h-2.24v-2.3h2.24V442.2z"/>
		<path d="M617.57,438.35l-0.55-6.98v-5.34h2.24v5.34l-0.56,6.98H617.57z M619.26,442.2h-2.24v-2.3h2.24V442.2z"/>
		<path d="M623.98,438.35l-0.55-6.98v-5.34h2.24v5.34l-0.56,6.98H623.98z M625.67,442.2h-2.24v-2.3h2.24V442.2z"/>
	</g>
	<rect x="123" y="119.5" class="st18" width="546" height="373"/>
	<g>
		<path class="st19" d="M207.23,416.61h-6.74v-16.64h-16.33v16.64h-6.74v-39h6.74v15.96h16.33v-15.96h6.74V416.61z"/>
		<path class="st19" d="M229.28,413.18h-0.14c-1.17,3.64-4.77,3.74-7.63,3.74c-5.57,0-9.17-1.3-9.17-8.68
			c0-6.55,3.09-8.37,9.17-8.37c3,0,5.94,0.05,7.35,3.12h0.19v-3.54c0-4.42-0.33-5.98-5.24-5.98c-2.57,0-4.63,0.26-4.63,3.8h-5.9
			c0-7.96,4.91-8.27,10.53-8.27c7.86,0,11.14,1.35,11.14,10.5v17.11h-5.9L229.28,413.18z M218.23,408.24c0,3.85,1.4,4.21,5.38,4.21
			c3.14,0,5.43-0.31,5.43-4.21c0-3.8-2.53-3.9-5.43-3.9C220.62,404.34,218.23,404.34,218.23,408.24z"/>
		<path class="st19" d="M246.69,389.31v4.11h0.19c1.31-4,4.26-4.42,7.72-4.42c6.46,0,8.42,2.96,8.42,9.62v17.99h-5.9v-17.32
			c0-3.95-0.8-5.3-4.59-5.3c-5.15,0-5.85,2.7-5.85,7.59v15.03h-5.9v-27.3H246.69z"/>
		<path class="st19" d="M265.78,389.31h3.09v-6.19h5.9v6.19h9.41v4.99h-9.41v13.99c0.05,2.5,0.05,3.64,2.53,3.64
			c3.32,0,2.95-2.91,2.95-5.77h5.19c0.09,8.27-1.78,10.76-8.14,10.76c-6.46,0-8.42-1.66-8.42-8.58V394.3h-3.09V389.31z"/>
		<path class="st19" d="M310.52,407.93c0,8.58-4.45,9-11.47,9c-9.41,0-11.33-3.33-11.33-13.88c0-9.78,1.4-14.04,11.33-14.04
			c10.11,0,11.47,3.28,11.47,15.18h-16.89c0,5.88,0.14,7.75,5.43,7.75c3.28,0,5.57,0.05,5.57-4H310.52z M304.62,400.02
			c0-5.62-0.75-6.03-5.57-6.03c-5.1,0-5.43,1.2-5.43,6.03H304.62z"/>
		<path class="st19" d="M320.67,389.31l-0.14,3.59h0.23c1.17-3.02,3.7-3.9,6.55-3.9c5.19,0,6.46,3.43,6.46,8.58v2.18h-5.52v-1.4
			c0-2.76-0.23-4.37-3-4.37c-3.51,0-4.54,2.24-4.45,5.77v16.85h-5.9v-27.3H320.67z"/>
		<path class="st19" d="M377.54,416.61h-6.04l-11.14-32.71h-0.14l0.56,32.71h-6.74v-39h10.81l9.55,28.97h0.19l9.36-28.97h11.04v39
			h-6.74l0.56-32.87h-0.23L377.54,416.61z"/>
		<path class="st19" d="M422.84,407.93c0,8.58-4.45,9-11.47,9c-9.41,0-11.33-3.33-11.33-13.88c0-9.78,1.4-14.04,11.33-14.04
			c10.11,0,11.47,3.28,11.47,15.18h-16.89c0,5.88,0.14,7.75,5.43,7.75c3.28,0,5.57,0.05,5.57-4H422.84z M416.94,400.02
			c0-5.62-0.75-6.03-5.57-6.03c-5.1,0-5.43,1.2-5.43,6.03H416.94z"/>
		<path class="st19" d="M424.66,389.31h3.09v-6.19h5.9v6.19h9.41v4.99h-9.41v13.99c0.05,2.5,0.05,3.64,2.53,3.64
			c3.32,0,2.95-2.91,2.95-5.77h5.19c0.09,8.27-1.78,10.76-8.14,10.76c-6.46,0-8.42-1.66-8.42-8.58V394.3h-3.09V389.31z"/>
		<path class="st19" d="M463.6,413.18h-0.14c-1.17,3.64-4.77,3.74-7.63,3.74c-5.57,0-9.17-1.3-9.17-8.68c0-6.55,3.09-8.37,9.17-8.37
			c3,0,5.94,0.05,7.35,3.12h0.19v-3.54c0-4.42-0.33-5.98-5.24-5.98c-2.57,0-4.63,0.26-4.63,3.8h-5.9c0-7.96,4.91-8.27,10.53-8.27
			c7.86,0,11.14,1.35,11.14,10.5v17.11h-5.9L463.6,413.18z M452.56,408.24c0,3.85,1.4,4.21,5.38,4.21c3.14,0,5.43-0.31,5.43-4.21
			c0-3.8-2.53-3.9-5.43-3.9C454.94,404.34,452.56,404.34,452.56,408.24z"/>
		<path class="st19" d="M481.06,416.61h-5.9v-39h5.9V416.61z"/>
		<path class="st19" d="M501.83,396.75c0-3.28-1.54-3.28-4.68-3.28s-5.29,0-5.29,3.59c0,2.7,0.66,2.81,5.8,3.07
			c5.8,0.31,10.95-0.16,10.95,8.68c0,7.38-5.24,8.11-11.47,8.11c-6.69,0-11.18,0-11.18-8.89h5.9c0.09,3.95,0.94,4.42,5.29,4.42
			c3.51,0,5.57,0.1,5.57-3.64c0-2.39-0.14-3.59-6.08-3.69c-9.03-0.16-10.67-1.51-10.67-8.48c0-7.49,4.87-7.64,11.18-7.64
			c4.82,0,10.58,0.1,10.58,7.75H501.83z"/>
		<path class="st19" d="M514.24,420.1c1.73,0,2.81-0.57,2.81-3.48h-2.34v-7.02h5.9v6.14c0,4.47-0.19,7.44-5.19,7.44h-1.17V420.1z"/>
		<path class="st19" d="M552.85,410.21h16.38v6.4h-23.12v-39h6.74V410.21z"/>
		<path class="st19" d="M569.37,389.31h3.09v-6.19h5.9v6.19h9.41v4.99h-9.41v13.99c0.05,2.5,0.05,3.64,2.53,3.64
			c3.32,0,2.95-2.91,2.95-5.77h5.19c0.09,8.27-1.78,10.76-8.14,10.76c-6.46,0-8.42-1.66-8.42-8.58V394.3h-3.09V389.31z"/>
		<path class="st19" d="M608.54,412.5h-0.19c-1.5,3.59-4.21,4.42-7.67,4.42c-9.13,0-9.41-6.4-9.41-14.77
			c0-8.01,0.98-13.16,9.41-13.16c3,0,6.13,0.62,7.39,3.95h0.23v-15.34h5.9v39h-5.9L608.54,412.5z M597.16,402.15
			c0,6.19-0.14,9.78,5.24,9.78c6.04,0,5.8-3.28,5.8-9.78c0-5.82-0.7-8.16-5.8-8.16C598.33,393.99,597.16,395.29,597.16,402.15z"/>
		<path class="st19" d="M627.16,416.61h-5.9v-7.12h5.9V416.61z"/>
	</g>
</g>
</svg>
